<svg width="1400" height="900" viewBox="0 0 1400 900" fill="none" xmlns="http://www.w3.org/2000/svg">
  <defs>
    <linearGradient id="bg" x1="0" y1="0" x2="1400" y2="900">
      <stop offset="0" stop-color="#06111f"/>
      <stop offset="0.52" stop-color="#071423"/>
      <stop offset="1" stop-color="#030712"/>
    </linearGradient>
    <linearGradient id="cyan" x1="0" y1="0" x2="1" y2="1">
      <stop stop-color="#00d4ff"/>
      <stop offset="1" stop-color="#8b5cf6"/>
    </linearGradient>
    <filter id="glow" x="-20%" y="-20%" width="140%" height="140%">
      <feGaussianBlur stdDeviation="8" result="blur"/>
      <feColorMatrix in="blur" type="matrix" values="0 0 0 0 0  0 0 0 0 0.83  0 0 0 0 1  0 0 0 0.75 0"/>
      <feMerge>
        <feMergeNode/>
        <feMergeNode in="SourceGraphic"/>
      </feMerge>
    </filter>
    <style>
      .mono { font-family: "JetBrains Mono", "Consolas", monospace; }
      .small { font-size: 25px; }
      .code { font-size: 27px; }
      .tiny { font-size: 21px; }
    </style>
  </defs>

  <rect width="1400" height="900" fill="url(#bg)"/>
  <rect x="0" y="0" width="1400" height="54" fill="#0b1220"/>
  <circle cx="30" cy="27" r="8" fill="#ff2d78"/>
  <circle cx="58" cy="27" r="8" fill="#ffd166"/>
  <circle cx="86" cy="27" r="8" fill="#00ff88"/>
  <text x="132" y="36" class="mono small" fill="#e5faff" opacity="0.86">src / portfolio / Hero.tsx</text>

  <rect x="0" y="54" width="250" height="846" fill="#070d18"/>
  <text x="30" y="104" class="mono tiny" fill="#8ba4bd">EXPLORER</text>
  <text x="42" y="160" class="mono small" fill="#d7f8ff">src</text>
  <text x="66" y="206" class="mono tiny" fill="#00d4ff">components</text>
  <text x="86" y="246" class="mono tiny" fill="#c7d2fe">HeroName3D.tsx</text>
  <text x="86" y="286" class="mono tiny" fill="#a7f3d0">FloatingLaptop.tsx</text>
  <text x="86" y="326" class="mono tiny" fill="#f9a8d4">ParticleNetwork.tsx</text>

  <rect x="250" y="54" width="730" height="846" fill="#07101d"/>
  <g class="mono code">
    <text x="292" y="112" fill="#60758f">01</text><text x="350" y="112" fill="#ff7ab6">const</text><text x="440" y="112" fill="#dbeafe"> PoshanMS = () =&gt; {</text>
    <text x="292" y="158" fill="#60758f">02</text><text x="350" y="158" fill="#60a5fa">return</text><text x="450" y="158" fill="#dbeafe"> &lt;Portfolio</text>
    <text x="292" y="204" fill="#60758f">03</text><text x="410" y="204" fill="#67e8f9">name</text><text x="490" y="204" fill="#dbeafe">=</text><text x="520" y="204" fill="#86efac">"Poshan MS"</text>
    <text x="292" y="250" fill="#60758f">04</text><text x="410" y="250" fill="#67e8f9">role</text><text x="480" y="250" fill="#dbeafe">=</text><text x="510" y="250" fill="#86efac">"Full Stack Engineer"</text>
    <text x="292" y="296" fill="#60758f">05</text><text x="410" y="296" fill="#67e8f9">location</text><text x="540" y="296" fill="#dbeafe">=</text><text x="570" y="296" fill="#86efac">"Karnataka, India"</text>
    <text x="292" y="342" fill="#60758f">06</text><text x="410" y="342" fill="#67e8f9">systems</text><text x="530" y="342" fill="#dbeafe">=</text><text x="560" y="342" fill="#c4b5fd">{["React","Node","Docker"]}</text>
    <text x="292" y="388" fill="#60758f">07</text><text x="350" y="388" fill="#dbeafe">/&gt;;</text>
    <text x="292" y="434" fill="#60758f">08</text><text x="350" y="434" fill="#dbeafe">};</text>
  </g>
  <rect x="275" y="520" width="660" height="2" fill="url(#cyan)" opacity="0.62" filter="url(#glow)"/>
  <text x="292" y="590" class="mono small" fill="#94a3b8">building scalable, performant, beautiful systems</text>

  <rect x="980" y="54" width="420" height="846" fill="#030712"/>
  <rect x="1008" y="92" width="364" height="66" rx="10" fill="#081528" stroke="#00d4ff" stroke-opacity="0.32"/>
  <text x="1032" y="134" class="mono small" fill="#67e8f9">terminal</text>
  <g class="mono small">
    <text x="1020" y="228" fill="#00ff88">$ npm run dev</text>
    <text x="1020" y="282" fill="#94a3b8">Next.js 14.2.35</text>
    <text x="1020" y="336" fill="#94a3b8">Local: localhost:3000</text>
    <text x="1020" y="390" fill="#00d4ff">ready in 1.2s</text>
    <text x="1020" y="444" fill="#ff7ab6">portfolio compiled</text>
    <text x="1020" y="498" fill="#00ff88">route / loaded</text>
    <rect x="1022" y="536" width="16" height="30" fill="#00ff88" filter="url(#glow)"/>
  </g>

  <g opacity="0.28" filter="url(#glow)">
    <circle cx="1130" cy="690" r="86" stroke="#00d4ff" stroke-width="2"/>
    <circle cx="1130" cy="690" r="128" stroke="#8b5cf6" stroke-width="2"/>
    <path d="M1040 690H1220M1130 600V780" stroke="#00d4ff"/>
  </g>
</svg>
